<svg width="1799" height="450" viewBox="0 0 1799 450" fill="none" xmlns="http://www.w3.org/2000/svg">
<g clip-path="url(#clip0_1759_135)">
<g clip-path="url(#clip1_1759_135)">
<path d="M408.881 342.844L254.119 14.1939C252.204 10.1375 249.223 6.67768 245.495 4.18425C241.766 1.69082 237.43 0.25754 232.95 0.0376173C228.468 -0.260661 223.99 0.675882 220.003 2.74536C216.016 4.81484 212.673 7.93801 210.338 11.7751L42.4876 283.65C39.9488 287.759 38.6291 292.505 38.6822 297.334C38.7353 302.164 40.159 306.879 42.7876 310.931L124.838 438.019C127.948 442.779 132.509 446.41 137.846 448.372C143.183 450.335 149.01 450.524 154.463 448.913L392.644 378.469C399.938 376.313 405.9 371.156 409.013 364.313C412.125 357.469 412.088 349.631 408.881 342.844ZM374.231 356.944L172.125 416.7C170.725 417.126 169.238 417.182 167.809 416.863C166.381 416.544 165.059 415.86 163.974 414.878C162.888 413.896 162.075 412.65 161.614 411.26C161.153 409.871 161.06 408.386 161.344 406.95L233.531 61.2376C234.881 54.7689 243.825 53.7376 246.638 59.7376L380.306 343.575C380.897 344.841 381.206 346.219 381.213 347.616C381.219 349.013 380.922 350.394 380.343 351.665C379.764 352.936 378.916 354.066 377.857 354.977C376.799 355.889 375.574 356.56 374.231 356.944Z" fill="url(#paint0_linear_1759_135)"/>
</g>
<path d="M539.446 325V124.273H618.639C633.864 124.273 646.834 127.18 657.55 132.996C668.266 138.746 676.433 146.75 682.053 157.009C687.737 167.202 690.58 178.963 690.58 192.293C690.58 205.622 687.705 217.384 681.955 227.577C676.205 237.77 667.874 245.709 656.962 251.393C646.115 257.078 632.982 259.92 617.561 259.92H567.085V225.911H610.7C618.868 225.911 625.598 224.506 630.891 221.696C636.249 218.821 640.234 214.868 642.848 209.837C645.527 204.74 646.866 198.892 646.866 192.293C646.866 185.628 645.527 179.812 642.848 174.847C640.234 169.815 636.249 165.928 630.891 163.183C625.533 160.374 618.737 158.969 610.504 158.969H581.885V325H539.446ZM717.361 325V174.455H757.84V200.722H759.408C762.152 191.378 766.759 184.321 773.228 179.551C779.696 174.716 787.145 172.298 795.574 172.298C797.665 172.298 799.919 172.429 802.337 172.69C804.755 172.952 806.878 173.311 808.708 173.768V210.817C806.748 210.229 804.036 209.706 800.573 209.249C797.11 208.791 793.941 208.562 791.066 208.562C784.924 208.562 779.435 209.902 774.6 212.581C769.83 215.195 766.04 218.854 763.23 223.558C760.486 228.263 759.114 233.686 759.114 239.828V325H717.361ZM830.295 325V174.455H872.048V325H830.295ZM851.269 155.048C845.062 155.048 839.737 152.99 835.293 148.874C830.915 144.692 828.727 139.693 828.727 133.878C828.727 128.128 830.915 123.195 835.293 119.078C839.737 114.896 845.062 112.805 851.269 112.805C857.477 112.805 862.769 114.896 867.147 119.078C871.59 123.195 873.812 128.128 873.812 133.878C873.812 139.693 871.59 144.692 867.147 148.874C862.769 152.99 857.477 155.048 851.269 155.048ZM1030.75 217.384L992.528 219.736C991.875 216.469 990.47 213.528 988.314 210.915C986.157 208.236 983.315 206.112 979.787 204.544C976.324 202.911 972.174 202.094 967.339 202.094C960.87 202.094 955.414 203.466 950.971 206.21C946.528 208.889 944.306 212.483 944.306 216.991C944.306 220.585 945.744 223.624 948.619 226.107C951.494 228.589 956.427 230.582 963.419 232.085L990.666 237.574C1005.3 240.58 1016.21 245.415 1023.4 252.08C1030.59 258.744 1034.18 267.5 1034.18 278.347C1034.18 288.213 1031.28 296.871 1025.46 304.32C1019.71 311.768 1011.8 317.584 1001.74 321.766C991.744 325.882 980.211 327.94 967.143 327.94C947.214 327.94 931.336 323.791 919.51 315.493C907.748 307.129 900.855 295.76 898.829 281.385L939.896 279.229C941.137 285.305 944.143 289.945 948.913 293.146C953.683 296.283 959.792 297.851 967.241 297.851C974.559 297.851 980.44 296.446 984.883 293.636C989.392 290.761 991.679 287.07 991.744 282.561C991.679 278.771 990.078 275.668 986.941 273.25C983.805 270.767 978.97 268.872 972.436 267.565L946.365 262.371C931.663 259.43 920.718 254.334 913.531 247.081C906.409 239.828 902.848 230.582 902.848 219.344C902.848 209.673 905.461 201.342 910.689 194.351C915.981 187.359 923.397 181.969 932.937 178.179C942.542 174.389 953.781 172.494 966.653 172.494C985.667 172.494 1000.63 176.513 1011.54 184.55C1022.52 192.587 1028.92 203.531 1030.75 217.384ZM1060.47 325V174.455H1100.27V201.016H1102.03C1105.17 192.195 1110.39 185.236 1117.71 180.139C1125.03 175.043 1133.79 172.494 1143.98 172.494C1154.3 172.494 1163.09 175.075 1170.35 180.237C1177.6 185.334 1182.43 192.26 1184.85 201.016H1186.42C1189.49 192.391 1195.04 185.497 1203.08 180.335C1211.18 175.108 1220.76 172.494 1231.8 172.494C1245.85 172.494 1257.25 176.97 1266 185.922C1274.83 194.808 1279.24 207.419 1279.24 223.754V325H1237.58V231.987C1237.58 223.624 1235.36 217.351 1230.92 213.169C1226.47 208.987 1220.92 206.896 1214.25 206.896C1206.67 206.896 1200.76 209.314 1196.51 214.149C1192.27 218.919 1190.14 225.224 1190.14 233.065V325H1149.66V231.105C1149.66 223.722 1147.54 217.841 1143.29 213.463C1139.11 209.085 1133.59 206.896 1126.73 206.896C1122.09 206.896 1117.91 208.072 1114.18 210.425C1110.53 212.712 1107.62 215.946 1105.46 220.128C1103.31 224.244 1102.23 229.08 1102.23 234.634V325H1060.47ZM1355.15 327.842C1345.54 327.842 1336.98 326.176 1329.47 322.844C1321.95 319.446 1316.01 314.447 1311.63 307.848C1307.32 301.183 1305.16 292.885 1305.16 282.953C1305.16 274.589 1306.7 267.565 1309.77 261.881C1312.84 256.196 1317.02 251.622 1322.31 248.159C1327.6 244.696 1333.62 242.082 1340.35 240.318C1347.14 238.554 1354.26 237.312 1361.71 236.594C1370.47 235.679 1377.52 234.83 1382.88 234.045C1388.24 233.196 1392.13 231.955 1394.55 230.321C1396.96 228.687 1398.17 226.27 1398.17 223.068V222.48C1398.17 216.273 1396.21 211.47 1392.29 208.072C1388.44 204.675 1382.95 202.976 1375.83 202.976C1368.31 202.976 1362.33 204.642 1357.89 207.974C1353.45 211.241 1350.51 215.358 1349.07 220.324L1310.45 217.188C1312.41 208.04 1316.27 200.134 1322.02 193.469C1327.77 186.739 1335.18 181.577 1344.27 177.983C1353.41 174.324 1364 172.494 1376.02 172.494C1384.39 172.494 1392.39 173.474 1400.03 175.435C1407.75 177.395 1414.57 180.433 1420.52 184.55C1426.53 188.666 1431.27 193.959 1434.73 200.428C1438.19 206.831 1439.93 214.509 1439.93 223.46V325H1400.33V304.124H1399.15C1396.74 308.828 1393.5 312.977 1389.45 316.571C1385.4 320.099 1380.53 322.876 1374.85 324.902C1369.16 326.862 1362.59 327.842 1355.15 327.842ZM1367.1 299.027C1373.25 299.027 1378.67 297.818 1383.37 295.401C1388.08 292.918 1391.77 289.585 1394.45 285.403C1397.13 281.222 1398.47 276.484 1398.47 271.192V255.216C1397.16 256.065 1395.36 256.849 1393.08 257.568C1390.85 258.222 1388.34 258.842 1385.53 259.43C1382.72 259.953 1379.91 260.443 1377.1 260.901C1374.29 261.293 1371.74 261.652 1369.46 261.979C1364.55 262.697 1360.27 263.841 1356.62 265.409C1352.96 266.977 1350.11 269.101 1348.09 271.78C1346.06 274.393 1345.05 277.661 1345.05 281.581C1345.05 287.266 1347.11 291.611 1351.23 294.616C1355.41 297.557 1360.7 299.027 1367.1 299.027ZM1660.97 124.273H1703.4V254.628C1703.4 269.264 1699.91 282.071 1692.92 293.048C1685.99 304.026 1676.29 312.585 1663.81 318.727C1651.33 324.804 1636.79 327.842 1620.19 327.842C1603.53 327.842 1588.96 324.804 1576.48 318.727C1564 312.585 1554.3 304.026 1547.37 293.048C1540.44 282.071 1536.98 269.264 1536.98 254.628V124.273H1579.42V251.001C1579.42 258.646 1581.09 265.442 1584.42 271.388C1587.82 277.334 1592.59 282.006 1598.73 285.403C1604.87 288.801 1612.03 290.5 1620.19 290.5C1628.43 290.5 1635.58 288.801 1641.66 285.403C1647.8 282.006 1652.54 277.334 1655.87 271.388C1659.27 265.442 1660.97 258.646 1660.97 251.001V124.273ZM1780.76 124.273V325H1738.32V124.273H1780.76Z" fill="#F6F6F9"/>
</g>
<defs>
<linearGradient id="paint0_linear_1759_135" x1="38.6807" y1="224.99" x2="411.317" y2="224.99" gradientUnits="userSpaceOnUse">
<stop stop-color="#F25454"/>
<stop offset="0.75" stop-color="#7D44EF"/>
</linearGradient>
<clipPath id="clip0_1759_135">
<rect width="1799" height="450" rx="80" fill="white"/>
</clipPath>
<clipPath id="clip1_1759_135">
<rect width="450" height="450" fill="white"/>
</clipPath>
</defs>
</svg>
