<svg width="1771" height="450" viewBox="0 0 1771 450" fill="none" xmlns="http://www.w3.org/2000/svg">
<g clip-path="url(#clip0_1933_136)">
<mask id="mask0_1933_136" style="mask-type:luminance" maskUnits="userSpaceOnUse" x="-28" y="0" width="1799" height="450">
<path d="M1691 0H52C7.81722 0 -28 35.8172 -28 80V370C-28 414.183 7.81722 450 52 450H1691C1735.18 450 1771 414.183 1771 370V80C1771 35.8172 1735.18 0 1691 0Z" fill="white"/>
</mask>
<g mask="url(#mask0_1933_136)">
<mask id="mask1_1933_136" style="mask-type:luminance" maskUnits="userSpaceOnUse" x="0" y="21" width="418" height="418">
<path d="M417.787 21.2124H0V439H417.787V21.2124Z" fill="white"/>
</mask>
<g mask="url(#mask1_1933_136)">
</g>
<path d="M26.4829 311.617L204.816 418.617C205.298 418.902 205.833 419.027 206.314 419.259C206.796 419.49 207.331 419.722 207.866 419.936C209.809 420.748 211.894 421.167 214 421.167C216.107 421.167 218.192 420.748 220.135 419.936C220.67 419.722 221.169 419.508 221.687 419.259C222.204 419.009 222.703 418.902 223.185 418.617L401.518 311.617C403.628 310.351 405.453 308.663 406.879 306.657C408.305 304.652 409.301 302.373 409.803 299.965C410.306 297.556 410.304 295.07 409.799 292.661C409.294 290.253 408.296 287.976 406.868 285.972L228.535 36.3055C228.303 35.9845 227.91 35.8775 227.661 35.5922C226.06 33.4925 223.996 31.7907 221.63 30.6193C219.263 29.4478 216.659 28.8384 214.018 28.8384C211.378 28.8384 208.773 29.4478 206.407 30.6193C204.041 31.7907 201.977 33.4925 200.376 35.5922C200.126 35.8775 199.734 35.9845 199.502 36.3055L21.1686 285.972C19.7405 287.976 18.7425 290.253 18.2373 292.661C17.7322 295.07 17.7308 297.556 18.2333 299.965C18.7358 302.373 19.7313 304.652 21.1572 306.657C22.5831 308.663 24.4085 310.351 26.5186 311.617H26.4829ZM231.834 371.84V102.325L366.6 290.983L231.834 371.84ZM196.167 102.325V371.84L61.4006 290.983L196.167 102.325Z" fill="url(#paint0_linear_1933_136)"/>
<path d="M511.446 325V124.273H590.639C605.864 124.273 618.834 127.18 629.55 132.996C640.266 138.746 648.433 146.75 654.053 157.009C659.737 167.202 662.58 178.963 662.58 192.293C662.58 205.622 659.705 217.384 653.955 227.577C648.205 237.77 639.874 245.709 628.962 251.393C618.115 257.078 604.982 259.92 589.561 259.92H539.085V225.911H582.7C590.868 225.911 597.598 224.506 602.891 221.696C608.249 218.821 612.234 214.868 614.848 209.837C617.527 204.74 618.866 198.892 618.866 192.293C618.866 185.628 617.527 179.812 614.848 174.847C612.234 169.815 608.249 165.928 602.891 163.183C597.533 160.374 590.737 158.969 582.504 158.969H553.885V325H511.446ZM689.361 325V174.455H729.84V200.722H731.408C734.152 191.378 738.759 184.321 745.228 179.551C751.696 174.716 759.145 172.298 767.574 172.298C769.665 172.298 771.919 172.429 774.337 172.69C776.755 172.952 778.878 173.311 780.708 173.768V210.817C778.748 210.229 776.036 209.706 772.573 209.249C769.11 208.791 765.941 208.562 763.066 208.562C756.924 208.562 751.435 209.902 746.6 212.581C741.83 215.195 738.04 218.854 735.23 223.558C732.486 228.263 731.114 233.686 731.114 239.828V325H689.361ZM802.295 325V174.455H844.048V325H802.295ZM823.269 155.048C817.062 155.048 811.737 152.99 807.293 148.874C802.915 144.692 800.727 139.693 800.727 133.878C800.727 128.128 802.915 123.195 807.293 119.078C811.737 114.896 817.062 112.805 823.269 112.805C829.477 112.805 834.769 114.896 839.147 119.078C843.59 123.195 845.812 128.128 845.812 133.878C845.812 139.693 843.59 144.692 839.147 148.874C834.769 152.99 829.477 155.048 823.269 155.048ZM1002.75 217.384L964.528 219.736C963.875 216.469 962.47 213.528 960.314 210.915C958.157 208.236 955.315 206.112 951.787 204.544C948.324 202.911 944.174 202.094 939.339 202.094C932.87 202.094 927.414 203.466 922.971 206.21C918.528 208.889 916.306 212.483 916.306 216.991C916.306 220.585 917.744 223.624 920.619 226.107C923.494 228.589 928.427 230.582 935.419 232.085L962.666 237.574C977.3 240.58 988.21 245.415 995.4 252.08C1002.59 258.744 1006.18 267.5 1006.18 278.347C1006.18 288.213 1003.28 296.871 997.46 304.32C991.71 311.768 983.8 317.584 973.74 321.766C963.744 325.882 952.211 327.94 939.143 327.94C919.214 327.94 903.336 323.791 891.51 315.493C879.748 307.129 872.855 295.76 870.829 281.385L911.896 279.229C913.137 285.305 916.143 289.945 920.913 293.146C925.683 296.283 931.792 297.851 939.241 297.851C946.559 297.851 952.44 296.446 956.883 293.636C961.392 290.761 963.679 287.07 963.744 282.561C963.679 278.771 962.078 275.668 958.941 273.25C955.805 270.767 950.97 268.872 944.436 267.565L918.365 262.371C903.663 259.43 892.718 254.334 885.531 247.081C878.409 239.828 874.848 230.582 874.848 219.344C874.848 209.673 877.461 201.342 882.689 194.351C887.981 187.359 895.397 181.969 904.937 178.179C914.542 174.389 925.781 172.494 938.653 172.494C957.667 172.494 972.63 176.513 983.54 184.55C994.52 192.587 1000.92 203.531 1002.75 217.384ZM1032.47 325V174.455H1072.27V201.016H1074.03C1077.17 192.195 1082.39 185.236 1089.71 180.139C1097.03 175.043 1105.79 172.494 1115.98 172.494C1126.3 172.494 1135.09 175.075 1142.35 180.237C1149.6 185.334 1154.43 192.26 1156.85 201.016H1158.42C1161.49 192.391 1167.04 185.497 1175.08 180.335C1183.18 175.108 1192.76 172.494 1203.8 172.494C1217.85 172.494 1229.25 176.97 1238 185.922C1246.83 194.808 1251.24 207.419 1251.24 223.754V325H1209.58V231.987C1209.58 223.624 1207.36 217.351 1202.92 213.169C1198.47 208.987 1192.92 206.896 1186.25 206.896C1178.67 206.896 1172.76 209.314 1168.51 214.149C1164.27 218.919 1162.14 225.224 1162.14 233.065V325H1121.66V231.105C1121.66 223.722 1119.54 217.841 1115.29 213.463C1111.11 209.085 1105.59 206.896 1098.73 206.896C1094.09 206.896 1089.91 208.072 1086.18 210.425C1082.53 212.712 1079.62 215.946 1077.46 220.128C1075.31 224.244 1074.23 229.08 1074.23 234.634V325H1032.47ZM1327.15 327.842C1317.54 327.842 1308.98 326.176 1301.47 322.844C1293.95 319.446 1288.01 314.447 1283.63 307.848C1279.32 301.183 1277.16 292.885 1277.16 282.953C1277.16 274.589 1278.7 267.565 1281.77 261.881C1284.84 256.196 1289.02 251.622 1294.31 248.159C1299.6 244.696 1305.62 242.082 1312.35 240.318C1319.14 238.554 1326.26 237.312 1333.71 236.594C1342.47 235.679 1349.52 234.83 1354.88 234.045C1360.24 233.196 1364.13 231.955 1366.55 230.321C1368.96 228.687 1370.17 226.27 1370.17 223.068V222.48C1370.17 216.273 1368.21 211.47 1364.29 208.072C1360.44 204.675 1354.95 202.976 1347.83 202.976C1340.31 202.976 1334.33 204.642 1329.89 207.974C1325.45 211.241 1322.51 215.358 1321.07 220.324L1282.45 217.188C1284.41 208.04 1288.27 200.134 1294.02 193.469C1299.77 186.739 1307.18 181.577 1316.27 177.983C1325.41 174.324 1336 172.494 1348.02 172.494C1356.39 172.494 1364.39 173.474 1372.03 175.435C1379.75 177.395 1386.57 180.433 1392.52 184.55C1398.53 188.666 1403.27 193.959 1406.73 200.428C1410.19 206.831 1411.93 214.509 1411.93 223.46V325H1372.33V304.124H1371.15C1368.74 308.828 1365.5 312.977 1361.45 316.571C1357.4 320.099 1352.53 322.876 1346.85 324.902C1341.16 326.862 1334.59 327.842 1327.15 327.842ZM1339.1 299.027C1345.25 299.027 1350.67 297.818 1355.37 295.401C1360.08 292.918 1363.77 289.585 1366.45 285.403C1369.13 281.222 1370.47 276.484 1370.47 271.192V255.216C1369.16 256.065 1367.36 256.849 1365.08 257.568C1362.85 258.222 1360.34 258.842 1357.53 259.43C1354.72 259.953 1351.91 260.443 1349.1 260.901C1346.29 261.293 1343.74 261.652 1341.46 261.979C1336.55 262.697 1332.27 263.841 1328.62 265.409C1324.96 266.977 1322.11 269.101 1320.09 271.78C1318.06 274.393 1317.05 277.661 1317.05 281.581C1317.05 287.266 1319.11 291.611 1323.23 294.616C1327.41 297.557 1332.7 299.027 1339.1 299.027ZM1632.97 124.273H1675.4V254.628C1675.4 269.264 1671.91 282.071 1664.92 293.048C1657.99 304.026 1648.29 312.585 1635.81 318.727C1623.33 324.804 1608.79 327.842 1592.19 327.842C1575.53 327.842 1560.96 324.804 1548.48 318.727C1536 312.585 1526.3 304.026 1519.37 293.048C1512.44 282.071 1508.98 269.264 1508.98 254.628V124.273H1551.42V251.001C1551.42 258.646 1553.09 265.442 1556.42 271.388C1559.82 277.334 1564.59 282.006 1570.73 285.403C1576.87 288.801 1584.03 290.5 1592.19 290.5C1600.43 290.5 1607.58 288.801 1613.66 285.403C1619.8 282.006 1624.54 277.334 1627.87 271.388C1631.27 265.442 1632.97 258.646 1632.97 251.001V124.273ZM1752.76 124.273V325H1710.32V124.273H1752.76Z" fill="#F6F6F9"/>
</g>
</g>
<defs>
<linearGradient id="paint0_linear_1933_136" x1="17.8574" y1="225.003" x2="410.179" y2="225.003" gradientUnits="userSpaceOnUse">
<stop stop-color="#F25454"/>
<stop offset="0.75" stop-color="#7D44EF"/>
</linearGradient>
<clipPath id="clip0_1933_136">
<rect width="1771" height="450" fill="white"/>
</clipPath>
</defs>
</svg>
