<svg width="781" height="1450" viewBox="0 0 781 1450" fill="none" xmlns="http://www.w3.org/2000/svg">
<path d="M781 610.907L501.867 18.0243C501.867 18.0243 498.788 14.9175 495.432 14.6439C495.432 14.6439 493.1 19.8992 492.562 25.118C489.432 55.4959 493.185 57.7529 484.151 70.9883C479.321 78.0649 471.521 88.7687 471.523 90.6555C471.531 96.3945 474.708 95.8277 480.306 90.4862C483.154 87.7681 488.767 85.539 491.897 84.3559C496.931 82.4525 499.877 84.2136 502.9 86.3999C505.602 88.354 506.666 92.5208 507.716 95.1688C508.767 97.8168 525.492 163.414 545.765 241.235C578.457 366.724 582.955 375.647 581.792 385.845C581.792 385.845 583.211 401.978 580.235 407.979C575.41 417.706 556.663 433.27 556.663 433.27C533.363 455.571 533.32 451.939 535.017 458.308C536.577 464.163 536.464 463.669 542.393 463.171C545.976 462.871 551.515 462.507 553.662 460.49C559.712 454.81 574.548 446.355 582.571 447.329C599.907 449.434 598.488 452.026 617.801 526.597C626.224 559.122 630.045 578.197 632.824 589.94C636.45 605.258 633.819 610.639 623.518 621.258C608.537 636.699 583.023 644.14 555.64 639.721C540.307 637.247 530.503 629.162 528.778 623.724C526.986 618.077 526.491 608.413 529.38 601.639C534.06 590.667 544.057 581.181 554.522 576.178C560.775 573.188 566.268 571.082 565.89 569.74C564.566 565.028 522.38 578.468 506.777 591.473C494.867 602.576 484.809 613.612 476.98 627.411L477.748 615.923C478.486 604.889 478.084 604.666 483.975 595.362C485.559 592.859 490.407 589.035 489.867 588.227C489.031 586.975 482.295 586.675 476.443 589.509C457.296 599.444 454.782 614.217 444.084 628.369C443.549 628.371 441.089 623.157 438.618 616.781C431.824 599.255 420.875 584.773 393.976 556.303C368.209 529.032 363.206 520.141 363.227 504.577C363.236 496.556 369.692 482.192 377.24 473.837C386.617 463.458 393.592 462.237 413.463 452.661C460.469 430.01 476.971 415.611 486.332 390.734C491.592 376.753 491.218 365.95 487.41 347.024C480.534 312.855 448.76 287.268 405.089 280.733L395.924 279.361C399.776 271.003 406.553 264.851 412.881 259.674C415.753 257.278 423.925 252.493 431.163 248.851C460.666 234.004 460.912 233.498 464.131 218.692C465.04 214.509 466.26 212.159 464.819 212.06C463.172 211.946 459.42 214.818 456.495 219.57C452.285 226.411 449.972 227.397 435.27 231.593C411.483 238.382 392.436 241.919 368.049 243.214C364.507 243.214 363.236 242.189 363.236 239.332C363.236 237.197 359.187 224.414 354.239 210.926C342.977 180.231 341.655 170.371 346.532 157.276C350.773 145.891 353.048 144.976 349.88 145.072C345.346 145.209 331.512 160.192 329.063 170.496C327.082 178.832 327.181 185.858 329.62 210.172L332.585 239.719L320.706 260.86C309.363 281.047 308.879 282.445 309.991 291.831C311.054 300.808 310.468 302.905 303.244 315.996C295.557 329.926 295.364 330.719 296.4 344.065C297.721 361.072 298.463 362.975 305.357 367.049C309.655 369.588 312.454 371.773 313.864 371.096C314.94 370.579 315.107 367.892 315.107 365.397C315.107 355.899 322.544 344.262 338.529 328.749C348.781 318.801 358.529 311.326 365.531 308.043C371.558 305.218 377.007 302.07 377.638 301.048C407.087 296.024 449.041 321.055 461.685 344.908C470.815 363.679 466.706 383.081 445.759 401.711C431.717 414.201 420.412 419.742 385.054 431.678C338.16 447.245 309.175 477.843 307.89 514.752C306.864 536.646 306.747 536.19 329.382 598.524C332.074 605.938 334.296 614.522 334.318 617.599C334.333 619.62 333.738 620.804 333.738 620.804C333.738 620.804 331.113 618.179 326.999 611.821C322.951 605.567 316.367 599.851 312.681 596.623C305.371 590.221 294.273 583.265 292.326 585.212C290.527 587.013 297.641 594.199 299.705 597.001C305.388 604.716 304.341 613.866 304.214 621.152C304.157 624.441 303.592 626.448 303.592 626.448C294.357 614.307 285.997 598.229 273.635 587.846C260.257 577.172 231.147 569.342 219.159 569.273C211.272 569.228 216.021 572.195 227.63 577.745C246.537 586.884 258.496 611.072 252.102 625.042C248.747 631.083 241.124 634.85 224.912 637.556C191.693 643.102 158.664 627.382 150.793 604.277C148.139 596.483 148.537 594.313 164.945 527.099C174.231 489.062 182.457 456.012 183.224 453.655C185.25 447.43 195.62 445.999 208.736 450.134C217.123 452.779 222.195 456.345 233.765 467.732C241.745 475.587 249.378 483.096 250.286 483.096C250.286 483.096 251.94 477.097 248.629 462.755C245.768 450.358 244.835 452.238 221.746 430.304C212.663 421.676 207.626 416.893 204.185 413.057C198.943 407.214 197.495 405.797 197.555 400.06C197.587 396.924 198.214 387.601 198.881 384.541C219.564 289.619 241.335 191.36 273.171 89.9312C275.139 86.6682 280.136 83.7034 282.998 84.0955C291.128 85.2087 305.251 109.964 308.206 109.459C310.046 92.52 294.306 70.3886 287.191 59.684C287.191 59.684 289.843 3.71534 281.391 0L0 614.632C84.8901 811.513 202.433 1025.07 278.499 1208.92C279.522 1211.61 281.679 1213.82 283.293 1213.82C285.891 1213.82 286.229 1200.66 286.229 1099.55V985.277L274.586 982.039C257.503 977.288 250.264 973.418 226.647 945.859C205.956 921.715 205.543 918.985 204.367 908.165C203.55 900.642 204.52 888.576 207.354 871.024C213.128 835.257 215.189 803.576 212.718 788.591C211.616 781.913 211.811 775.354 211.811 775.354C213.463 774.423 237.407 783.646 244.751 788.687C265.237 799.35 273.848 817.272 281.813 835.518C284.8 842.362 291.36 854.725 291.36 854.725C290.155 831.252 295.153 793.818 277.566 778.427L286.96 782.396C325.237 804.29 380.387 853.845 391.074 897.991C396.155 919.968 403.665 965.081 403.654 973.559C403.646 978.976 404.713 984.86 402.378 991.296C398.664 1001.53 389.2 1017.72 370.345 1051.16C346.357 1093.71 339.755 1103.79 338.841 1111.51C337.782 1120.45 338.719 1123.39 352.395 1153.92C360.475 1171.97 367.086 1189.07 367.086 1191.93C367.086 1197.17 348.565 1226.43 332.239 1246.97C321.254 1260.8 316.413 1272.05 318.087 1279.87C319.264 1285.36 329.812 1311.15 334.652 1320.36C334.652 1320.36 365.677 1391.9 384.71 1433.09C387.682 1439.52 391.972 1449.62 395.147 1450C399.391 1449.95 402.651 1438.72 405.489 1431.93C415.692 1407.51 441.295 1351.93 456.252 1320.01C460.856 1310.24 462.085 1307.34 460.662 1303.29C457.913 1295.48 452.745 1295.94 441.393 1305.64C429.188 1316.07 402.974 1333.71 392.002 1337.58C380.424 1341.67 375.221 1339.64 365.147 1332.24C355.797 1325.38 345.306 1308.22 337.314 1286.72C334.179 1278.28 334.176 1277.34 337.257 1270.35C341.002 1261.03 346.33 1253.7 351.864 1246.62C355.706 1242.9 364.114 1231.33 370.037 1223.53C375.203 1216.73 384.048 1205.08 385.177 1202.85C388.627 1196.06 386.965 1185.34 378.783 1152.59C369.943 1117.2 371.508 1112.58 372.983 1104.66C383.535 1080.26 400.433 1060.88 415.795 1037L439.534 1000.11C449.062 986.837 450.04 973.257 442.7 919.48C429.625 873.313 460.077 802.349 494.936 790.733C498.137 804.507 487.585 847.133 494.559 853.011C514.414 815.504 519.431 791.406 561.559 777.61C574.097 774.417 584.919 766.46 595.718 761.722C544.614 805.219 590.434 901.826 584.567 908.82C572.503 934.051 553.046 966.339 531.173 976.018C520.468 981.196 511.343 982.531 499.924 985.526L499.508 1038.41C499.279 1067.62 500.454 1092.67 500.941 1094.06C501.847 1096.66 507.287 1098.81 510.192 1097.82L533.744 1090.29C544.744 1087.87 549.91 1088.48 559.443 1089.56C564.046 1089.85 564.088 1087.51 566.132 1084.3L781 610.907Z" fill="white"/>
</svg>
