<svg width="941" height="1610" viewBox="0 0 941 1610" fill="none" xmlns="http://www.w3.org/2000/svg">
<g filter="url(#filter0_d_1322_154)">
<path d="M861 690.907L581.867 98.0243C581.867 98.0243 578.788 94.9175 575.432 94.6439C575.432 94.6439 573.1 99.8992 572.562 105.118C569.432 135.496 573.185 137.753 564.151 150.988C559.321 158.065 551.521 168.769 551.523 170.656C551.531 176.395 554.708 175.828 560.306 170.486C563.154 167.768 568.767 165.539 571.897 164.356C576.931 162.453 579.877 164.214 582.9 166.4C585.602 168.354 586.666 172.521 587.717 175.169C588.767 177.817 605.492 243.414 625.765 321.235C658.457 446.724 662.955 455.647 661.791 465.845C661.791 465.845 663.211 481.978 660.235 487.979C655.41 497.706 636.663 513.27 636.663 513.27C613.363 535.571 613.32 531.939 615.017 538.308C616.577 544.163 616.464 543.669 622.393 543.171C625.976 542.871 631.515 542.507 633.662 540.49C639.712 534.81 654.548 526.355 662.571 527.329C679.907 529.434 678.488 532.026 697.801 606.597C706.224 639.122 710.045 658.197 712.824 669.94C716.45 685.258 713.819 690.639 703.518 701.258C688.537 716.699 663.023 724.14 635.64 719.721C620.307 717.247 610.503 709.162 608.778 703.724C606.986 698.077 606.491 688.413 609.38 681.639C614.06 670.667 624.057 661.181 634.522 656.178C640.775 653.188 646.268 651.082 645.89 649.74C644.566 645.028 602.38 658.468 586.777 671.473C574.867 682.576 564.809 693.612 556.98 707.411L557.748 695.923C558.486 684.889 558.084 684.666 563.975 675.362C565.559 672.859 570.407 669.035 569.867 668.227C569.031 666.975 562.295 666.675 556.443 669.509C537.296 679.444 534.782 694.217 524.084 708.369C523.549 708.371 521.089 703.157 518.618 696.781C511.824 679.255 500.875 664.773 473.976 636.303C448.209 609.032 443.206 600.142 443.227 584.577C443.236 576.556 449.692 562.192 457.24 553.837C466.617 543.458 473.592 542.237 493.463 532.661C540.469 510.01 556.971 495.611 566.332 470.734C571.592 456.753 571.218 445.95 567.41 427.024C560.534 392.855 528.76 367.268 485.089 360.733L475.924 359.361C479.776 351.003 486.553 344.851 492.881 339.674C495.753 337.278 503.925 332.493 511.163 328.851C540.666 314.004 540.912 313.498 544.131 298.692C545.04 294.509 546.26 292.159 544.819 292.06C543.172 291.946 539.42 294.818 536.495 299.57C532.285 306.411 529.972 307.397 515.27 311.593C491.483 318.382 472.436 321.919 448.049 323.214C444.507 323.214 443.236 322.189 443.236 319.332C443.236 317.197 439.187 304.414 434.239 290.926C422.977 260.231 421.655 250.371 426.532 237.276C430.773 225.891 433.048 224.976 429.88 225.072C425.346 225.209 411.512 240.192 409.063 250.496C407.082 258.832 407.181 265.858 409.62 290.172L412.585 319.719L400.706 340.86C389.363 361.047 388.879 362.445 389.991 371.831C391.054 380.808 390.468 382.905 383.244 395.996C375.557 409.926 375.364 410.719 376.4 424.065C377.721 441.072 378.463 442.975 385.357 447.049C389.655 449.588 392.454 451.773 393.864 451.096C394.94 450.579 395.107 447.892 395.107 445.397C395.107 435.899 402.544 424.262 418.529 408.749C428.781 398.801 438.529 391.326 445.531 388.043C451.558 385.218 457.007 382.07 457.638 381.048C487.087 376.024 529.041 401.054 541.685 424.908C550.815 443.679 546.706 463.081 525.759 481.711C511.717 494.201 500.412 499.742 465.054 511.678C418.16 527.245 389.175 557.843 387.89 594.752C386.864 616.646 386.747 616.19 409.382 678.524C412.074 685.938 414.295 694.522 414.318 697.599C414.333 699.62 413.738 700.804 413.738 700.804C413.738 700.804 411.113 698.179 406.999 691.821C402.951 685.567 396.367 679.851 392.681 676.623C385.371 670.221 374.273 663.265 372.326 665.212C370.527 667.013 377.641 674.199 379.705 677.001C385.388 684.716 384.341 693.866 384.214 701.152C384.157 704.441 383.592 706.448 383.592 706.448C374.357 694.307 365.997 678.229 353.635 667.846C340.257 657.172 311.147 649.342 299.159 649.273C291.272 649.228 296.021 652.195 307.63 657.745C326.537 666.884 338.496 691.072 332.102 705.042C328.747 711.083 321.124 714.85 304.912 717.556C271.693 723.102 238.664 707.382 230.793 684.277C228.139 676.483 228.537 674.313 244.945 607.099C254.231 569.062 262.457 536.012 263.224 533.655C265.25 527.43 275.62 525.999 288.736 530.134C297.123 532.779 302.195 536.345 313.765 547.732C321.745 555.587 329.378 563.096 330.286 563.096C330.286 563.096 331.94 557.097 328.629 542.755C325.768 530.358 324.835 532.238 301.746 510.304C292.663 501.676 287.626 496.893 284.185 493.057C278.943 487.214 277.495 485.797 277.555 480.06C277.587 476.924 278.214 467.601 278.881 464.541C299.564 369.619 321.335 271.36 353.171 169.931C355.139 166.668 360.136 163.703 362.998 164.095C371.128 165.209 385.251 189.964 388.206 189.459C390.046 172.52 374.306 150.389 367.191 139.684C367.191 139.684 369.843 83.7153 361.391 80L80 694.632C164.89 891.513 282.433 1105.07 358.499 1288.92C359.522 1291.61 361.679 1293.82 363.293 1293.82C365.891 1293.82 366.229 1280.66 366.229 1179.55V1065.28L354.586 1062.04C337.503 1057.29 330.264 1053.42 306.647 1025.86C285.956 1001.71 285.543 998.985 284.367 988.165C283.55 980.642 284.52 968.576 287.354 951.024C293.128 915.257 295.189 883.576 292.718 868.591C291.616 861.913 291.811 855.354 291.811 855.354C293.463 854.423 317.407 863.646 324.751 868.687C345.237 879.35 353.848 897.272 361.813 915.518C364.8 922.361 371.36 934.725 371.36 934.725C370.155 911.252 375.153 873.818 357.566 858.427L366.96 862.396C405.237 884.29 460.387 933.845 471.074 977.991C476.155 999.968 483.665 1045.08 483.654 1053.56C483.646 1058.98 484.713 1064.86 482.378 1071.3C478.664 1081.53 469.2 1097.72 450.345 1131.16C426.357 1173.71 419.755 1183.79 418.841 1191.51C417.782 1200.45 418.719 1203.39 432.395 1233.92C440.475 1251.97 447.086 1269.07 447.086 1271.93C447.086 1277.17 428.565 1306.43 412.239 1326.97C401.254 1340.8 396.413 1352.05 398.087 1359.87C399.264 1365.36 409.812 1391.15 414.652 1400.36C414.652 1400.36 445.677 1471.9 464.71 1513.09C467.682 1519.52 471.972 1529.62 475.147 1530C479.391 1529.95 482.651 1518.72 485.489 1511.92C495.692 1487.51 521.295 1431.93 536.252 1400.01C540.856 1390.24 542.085 1387.34 540.662 1383.29C537.913 1375.48 532.745 1375.94 521.393 1385.64C509.188 1396.07 482.974 1413.71 472.002 1417.58C460.424 1421.67 455.221 1419.64 445.147 1412.24C435.797 1405.38 425.306 1388.22 417.314 1366.72C414.179 1358.28 414.176 1357.34 417.257 1350.35C421.002 1341.03 426.33 1333.7 431.864 1326.62C435.706 1322.9 444.114 1311.33 450.037 1303.53C455.203 1296.73 464.048 1285.08 465.177 1282.85C468.627 1276.06 466.965 1265.34 458.783 1232.59C449.943 1197.2 451.508 1192.58 452.983 1184.66C463.535 1160.26 480.433 1140.88 495.795 1117L519.534 1080.11C529.062 1066.84 530.04 1053.26 522.7 999.48C509.625 953.313 540.077 882.349 574.936 870.733C578.137 884.507 567.585 927.133 574.559 933.011C594.414 895.504 599.431 871.406 641.559 857.61C654.097 854.417 664.919 846.46 675.718 841.722C624.614 885.219 670.434 981.826 664.567 988.82C652.503 1014.05 633.046 1046.34 611.173 1056.02C600.468 1061.2 591.343 1062.53 579.924 1065.53L579.508 1118.41C579.279 1147.62 580.454 1172.67 580.941 1174.06C581.847 1176.66 587.287 1178.81 590.192 1177.82L613.744 1170.29C624.744 1167.87 629.91 1168.48 639.443 1169.56C644.046 1169.85 644.088 1167.51 646.132 1164.3L861 690.907Z" fill="url(#paint0_linear_1322_154)"/>
</g>
<defs>
<filter id="filter0_d_1322_154" x="0" y="0" width="941" height="1610" filterUnits="userSpaceOnUse" color-interpolation-filters="sRGB">
<feFlood flood-opacity="0" result="BackgroundImageFix"/>
<feColorMatrix in="SourceAlpha" type="matrix" values="0 0 0 0 0 0 0 0 0 0 0 0 0 0 0 0 0 0 127 0" result="hardAlpha"/>
<feOffset/>
<feGaussianBlur stdDeviation="40"/>
<feComposite in2="hardAlpha" operator="out"/>
<feColorMatrix type="matrix" values="0 0 0 0 0 0 0 0 0 0 0 0 0 0 0 0 0 0 0.7 0"/>
<feBlend mode="normal" in2="BackgroundImageFix" result="effect1_dropShadow_1322_154"/>
<feBlend mode="normal" in="SourceGraphic" in2="effect1_dropShadow_1322_154" result="shape"/>
</filter>
<linearGradient id="paint0_linear_1322_154" x1="80" y1="805" x2="861" y2="805" gradientUnits="userSpaceOnUse">
<stop stop-color="white"/>
<stop offset="1" stop-color="#929292"/>
</linearGradient>
</defs>
</svg>
